<svg width="40" height="40" xmlns="http://www.w3.org/2000/svg" version="1.1">
 <g>
  <title>Layer 1</title>
  <path d="m18.309,4.5957c-4.8858,-0.00834 -9.4793,2.3269 -12.352,6.2793c-4.9467,6.808 -3.4373,16.337 3.3711,21.283c4.775,3.4682 11.123,3.8669 16.295,1.0234c0.10059,0.09704 0.21248,0.22555 0.3125,0.31446c0.75779,0.67359 1.6281,1.1035 2.709,1.1035c1.0808,0 2.0271,-0.44656 2.5391,-1.2656c0.51192,-0.81907 0.64844,-1.8592 0.64844,-3.1406l0,-3.3945c0.64459,-1.2517 1.1126,-2.5866 1.3906,-3.9668l0.82422,0l0,-2.832c1.7285,-1.0213 2.8945,-2.8987 2.8945,-5.0469c0,-3.2322 -2.6311,-5.8633 -5.8633,-5.8633c-0.60389,0 -1.1876,0.09127 -1.7363,0.26172c-0.64245,-0.67837 -1.3459,-1.2962 -2.1016,-1.8457l-0.02344,-0.01758l-0.002,-0.00002c-2.5915,-1.8752 -5.7075,-2.8872 -8.9063,-2.8926l0.00048,0.00022z" color="#000000" fill="#ff0000" stroke="#fff" stroke-linecap="round" stroke-linejoin="round" stroke-width="4" id="svg_1"/>
  <g transform="matrix(-.30817 .22389 -.22389 -.30817 48.59 28.08)" id="svg_2">
   <path d="m23.468,73.27c5.0959,15.684 22.119,24.357 37.802,19.261c15.684,-5.0959 24.357,-22.119 19.261,-37.802c-5.0959,-15.684 -22.119,-24.357 -37.802,-19.261c-15.684,5.0959 -24.357,22.119 -19.261,37.802zm3.8042,-1.2361c-4.4613,-13.731 2.9625,-28.301 16.693,-32.762c13.731,-4.4613 28.301,2.9625 32.762,16.693c4.4613,13.731 -2.9625,28.301 -16.693,32.762c-13.731,4.4613 -28.301,-2.9625 -32.762,-16.693z" color="#000000" fill="#bbb" stroke="#999" stroke-linecap="round" stroke-linejoin="round" stroke-width="4" id="svg_3"/>
   <path d="m13.981,76.433a40,40 0 0 0 50.379,25.609a40,40 0 0 0 25.682,-50.403a40,40 0 0 0 -50.403,-25.682a40,40 0 0 0 -25.682,50.403a40,40 0 0 0 0.02354,0.07244l0.00046,0.00056zm11.389,-3.7806a28,28 0 0 1 17.977,-35.282a28,28 0 0 1 35.282,17.977a28,28 0 0 1 -17.977,35.282a28,28 0 0 1 -35.282,-17.977z" fill="#333" id="svg_4"/>
   <circle transform="rotate(252)" cx="-76.936" cy="29.678" r="12" fill="#999" id="svg_5"/>
   <path d="m30.01,81.333c3.1944,4.0532 7.4468,7.1447 12.288,8.9331l9.7228,-17.941l9.6981,17.934c4.8381,-1.7903 9.0875,-4.8823 12.279,-8.935l-14.047,-14.752l20.026,-3.6768c-0.10096,-2.5655 -0.55428,-5.1049 -1.3472,-7.5468c-0.79382,-2.4417 -1.9197,-4.7625 -3.346,-6.8974l-18.358,8.7949l2.6918,-20.189c-4.965,-1.4034 -10.221,-1.4076 -15.189,-0.01216l2.6952,20.209l-18.401,-8.8115c-2.8686,4.2904 -4.4956,9.2901 -4.7013,14.447l20.067,3.6822l-14.0784,14.76146z" fill="#bbb" id="svg_6"/>
   <circle transform="rotate(252)" cx="-76.936" cy="29.678" r="5.6" fill="#999" id="svg_7"/>
  </g>
  <path d="m17.627,29.752c0,-3.352 3.6567,-1.8283 6.0945,0.60945c2.4378,2.4378 3.0472,3.6567 4.8756,3.6567s2.4378,-1.2189 2.4378,-3.6567l0,-8.5323" fill="none" stroke="#666" stroke-width="1.5" id="svg_8"/>
  <g transform="matrix(.303 0 0 .303 2.5525 4.2169)" id="svg_9">
   <circle cx="93.987" cy="35.987" r="17.7" fill="#fff" stroke="#4461c3" stroke-width="3.3003" id="svg_10"/>
   <rect x="83.985" y="52.089" width="19.802" height="9.9009" fill="#4461c3" id="svg_11"/>
   <circle cx="94" cy="36" r="4.0227" fill="#333" id="svg_12"/>
   <path d="m85.215,41.208a10.213,10.213 0 0 1 2.1645,-12.981a10.213,10.213 0 0 1 13.16,-0.07119a10.213,10.213 0 0 1 2.3049,12.957" fill="none" stroke="#aaa" stroke-width="3.3003" id="svg_13"/>
   <path d="m94,23.932l-2.0114,22.125l4.0227,0l-2.0113,-22.125z" fill="none" id="svg_14"/>
   <rect x="91.989" y="25.943" width="4.0227" height="16.091" fill="#333" stroke-width="0.99009" id="svg_15"/>
  </g>
 </g>

</svg>